<?xml version="1.0" encoding="utf-8"?>
<svg width="30" height="30" viewBox="0 0 30 30" fill="none" xmlns="http://www.w3.org/2000/svg">
  <g>
    <path d="M11.7188 0.0466897C11.7188 0.0466897 0.46875 4.03106 0.46875 4.03106C0.1875 4.12481 0 4.40606 0 4.68731C0 4.68731 0 18.7498 0 18.7498C0 19.0545 0.1875 19.3123 0.46875 19.4061C0.46875 19.4061 11.7188 23.3904 11.7188 23.3904C11.7891 23.4139 11.8828 23.4373 11.9531 23.4373C12 23.4373 12.0234 23.4373 12.0703 23.4373C12.0703 23.4373 12.0937 23.4373 12.0937 23.4373C12.1172 23.4373 12.1406 23.4139 12.1641 23.4139C12.1641 23.4139 12.1641 23.4139 12.1641 23.4139C12.1641 23.4139 23.4141 19.4295 23.4141 19.4295C23.6953 19.3358 23.8828 19.0545 23.8828 18.7733C23.8828 18.7733 23.8828 4.68731 23.8828 4.68731C23.8828 4.68731 23.8828 4.66388 23.8828 4.66388C23.8828 4.64044 23.8828 4.59357 23.8828 4.57013C23.8828 4.57013 23.8828 4.54669 23.8828 4.54669C23.8359 4.31232 23.6719 4.10138 23.4375 4.03106C23.4375 4.03106 17.8125 2.03888 17.8125 2.03888C17.8125 2.03888 17.7891 2.03888 17.7891 2.03888C17.6484 1.992 17.4609 1.96856 17.2969 2.03888C17.2969 2.03888 6.32812 5.90606 6.32812 5.90606C6.04688 5.99982 5.85938 6.28106 5.85938 6.56231C5.85938 6.56231 5.85938 9.14044 5.85938 9.14044C5.85938 9.53888 6.16406 9.84356 6.5625 9.84356C6.96094 9.84356 7.26562 9.53888 7.26562 9.14044C7.26562 9.14044 7.26562 7.0545 7.26562 7.0545L17.5312 3.42169L21.0938 4.68731C21.0938 4.68731 11.7188 8.01544 11.7188 8.01544C11.4375 8.10919 11.25 8.367 11.25 8.67169C11.25 8.67169 11.25 8.67169 11.25 8.69513C11.25 8.69513 11.25 21.7733 11.25 21.7733L1.40625 18.2576L1.40625 5.1795C1.40625 5.1795 12.1875 1.35919 12.1875 1.35919C12.5625 1.21856 12.75 0.820127 12.6094 0.468565C12.4922 0.0935645 12.0937 -0.0939353 11.7188 0.0466897C11.7188 0.0466897 11.7188 0.0466897 11.7188 0.0466897ZM12.6562 9.16388L22.5 5.67169L22.5 18.2342L12.6562 21.7264L12.6562 9.16388L12.6562 9.16388Z" fill="#FFFFFF" transform="translate(3.047 3.281)" />
  </g>
</svg>