<?xml version="1.0" encoding="utf-8"?>
<svg width="33" height="33" viewBox="0 0 33 33" fill="none" xmlns="http://www.w3.org/2000/svg">
  <g>
    <path d="M15.18 0C6.80413 0 0 6.80413 0 15.18C0 23.5559 6.80413 30.36 15.18 30.36C23.5559 30.36 30.36 23.5559 30.36 15.18C30.36 6.80413 23.5559 0 15.18 0C15.18 0 15.18 0 15.18 0ZM15.18 1.32C22.8425 1.32 29.04 7.51752 29.04 15.18C29.04 22.8425 22.8425 29.04 15.18 29.04C7.51752 29.04 1.32 22.8425 1.32 15.18C1.32 7.51752 7.51752 1.32 15.18 1.32C15.18 1.32 15.18 1.32 15.18 1.32ZM23.1258 5.93351C22.9317 5.92791 22.7449 6.00807 22.6153 6.15265C22.6153 6.15265 15.9612 13.3611 15.9612 13.3611C15.7144 13.2549 15.4486 13.2001 15.18 13.2C14.0865 13.2 13.2 14.0864 13.2 15.18C13.2 16.2735 14.0865 17.16 15.18 17.16C15.2906 17.1602 15.4009 17.1511 15.51 17.1329C15.51 17.1329 17.9025 21.4409 17.9025 21.4409C18.0798 21.7599 18.482 21.8747 18.801 21.6975C19.1199 21.5202 19.2348 21.1179 19.0575 20.799C19.0575 20.799 16.6624 16.4896 16.6624 16.4896C16.9824 16.1283 17.1593 15.6626 17.16 15.18C17.16 14.8587 17.0814 14.5414 16.931 14.2565C16.931 14.2565 23.5847 7.04726 23.5847 7.04726C23.7636 6.85848 23.8149 6.58226 23.7158 6.3418C23.6168 6.10135 23.3857 5.94148 23.1258 5.93351C23.1258 5.93351 23.1258 5.93351 23.1258 5.93351Z" fill="#FFFFFF" transform="translate(1.32 1.32)" />
  </g>
</svg>