<?xml version="1.0" encoding="utf-8"?>
<svg width="15" height="15" viewBox="0 0 15 15" fill="none" xmlns="http://www.w3.org/2000/svg">
  <defs>
    <radialGradient id="gradient_1" gradientUnits="userSpaceOnUse" cx="0" cy="0" r="1" gradientTransform="matrix(0 15 -7.5 0 7.5 0)">
      <stop offset="0.369" stop-color="#DB1414" />
      <stop offset="1" stop-color="#EF2A2A" />
    </radialGradient>
  </defs>
  <g>
    <path d="M7.5 0L9.58333 4.85294L15 5.29412L11.25 9.70588L12.5 15L10 13.6765M7.5 12.3529L2.5 15L3.75 9.70586L0 5.2941L5.41667 4.85292L6.36367 2.64704" />
    <path d="M7.71422 1.17191L7.5 0L9.58333 4.85294L12.5451 5.09417L15 5.29412L13.4048 7.17082L11.25 9.70588L11.8894 12.4137L12.5 15L10.1514 13.7566L10 13.6765L9.64037 11.7091Q9.65361 11.7066 9.66688 11.7044L9.54569 11.1911L9.25328 9.59145Q9.27196 9.26551 9.39332 8.96243Q9.51468 8.65934 9.72612 8.41059L10.9499 6.97087L9.42098 6.84634Q9.05105 6.81621 8.71657 6.65536L8.15 3.5559L7.71422 1.17191ZM6.79193 6.30504L6.36367 2.64704L5.41667 4.85292L0 5.2941L3.75 9.70586L3.11065 12.4137L2.5 15L4.84856 13.7566L7.5 12.3529L7.26744 10.3665Q6.89533 10.4101 6.56422 10.5853L5.45921 11.1704L5.69648 10.1654Q5.75052 9.93658 5.75 9.70141Q5.74947 9.46625 5.69442 9.23762Q5.63936 9.00899 5.53277 8.79937Q5.42618 8.58975 5.27388 8.41057L4.05012 6.97085L5.57902 6.84632Q5.91964 6.81858 6.23172 6.67931Q6.54381 6.54003 6.79193 6.30504Z" fill="url(#gradient_1)" fill-rule="evenodd" />
  </g>
</svg>