<?xml version="1.0" encoding="utf-8"?>
<svg width="30" height="30" viewBox="0 0 30 30" fill="none" xmlns="http://www.w3.org/2000/svg">
  <g>
    <g transform="translate(1.25 6.25)">
      <path d="M0 8.75C0 8.75 5.28461 12.9776 5.28461 12.9776C5.81949 13.4056 6.59911 13.3232 7.03286 12.7931C7.03286 12.7931 17.5 0 17.5 0" fill="none" stroke-width="2" stroke="#DEDDDA" stroke-linecap="round" transform="translate(8.75 1.25)" />
      <path d="M12.7366 9.046C12.7366 9.046 18.4676 2.04158 18.4676 2.04158C18.9047 1.50727 18.8259 0.719748 18.2916 0.282585C17.7573 -0.154565 16.9698 -0.0758147 16.5326 0.458485C16.5326 0.458485 10.816 7.4455 10.816 7.4455C10.816 7.4455 12.7366 9.046 12.7366 9.046ZM8.77872 13.8835C8.77872 13.8835 6.85809 12.2829 6.85809 12.2829L6.04144 13.281C6.04144 13.281 2.00008 10.25 2.00008 10.25C1.44779 9.83587 0.664288 9.94775 0.250076 10.5C-0.164141 11.0524 -0.052212 11.8359 0.500075 12.25C0.500075 12.25 4.54144 15.281 4.54144 15.281C5.61316 16.0849 7.128 15.901 7.97632 14.8641C7.97632 14.8641 8.77872 13.8835 8.77872 13.8835Z" fill="#DEDDDA" fill-rule="evenodd" />
    </g>
  </g>
</svg>