<?xml version="1.0" encoding="utf-8"?>
<svg width="32" height="32" viewBox="0 0 32 32" fill="none" xmlns="http://www.w3.org/2000/svg">
  <g>
    <path d="M3.33333 0C1.50032 0 0 1.50032 0 3.33333C0 3.33333 0 28 0 28C0 28.2538 0.144225 28.4857 0.371981 28.598C0.599737 28.7102 0.871481 28.6834 1.07286 28.5287C1.07286 28.5287 10.6029 21.1979 10.6029 21.1979C10.8948 20.9732 10.9493 20.5543 10.7246 20.2624C10.4999 19.9704 10.081 19.9159 9.78906 20.1406C9.78906 20.1406 1.33333 26.6458 1.33333 26.6458C1.33333 26.6458 1.33333 3.33333 1.33333 3.33333C1.33333 2.22101 2.22101 1.33333 3.33333 1.33333C3.33333 1.33333 15.3333 1.33333 15.3333 1.33333C16.4457 1.33333 17.3333 2.22101 17.3333 3.33333C17.3333 3.33333 17.3333 26.6458 17.3333 26.6458C17.3333 26.6458 11.7878 22.3802 11.7878 22.3802C11.5991 22.2328 11.3458 22.1979 11.1242 22.2888C10.9027 22.3797 10.7469 22.5824 10.7161 22.8199C10.6853 23.0574 10.7842 23.2931 10.9753 23.4375C10.9753 23.4375 17.5938 28.5286 17.5938 28.5286C17.7951 28.6833 18.0668 28.7102 18.2946 28.598C18.5224 28.4858 18.6666 28.2539 18.6667 28C18.6667 28 18.6667 3.33333 18.6667 3.33333C18.6667 1.50032 17.1663 0 15.3333 0C15.3333 0 3.33333 0 3.33333 0C3.33333 0 3.33333 0 3.33333 0ZM9.33463 5.33333C9.08787 5.33546 8.86245 5.47371 8.7487 5.69271C8.7487 5.69271 7.24349 8.58464 7.24349 8.58464C7.24349 8.58464 3.96615 9.16016 3.96615 9.16016C3.71965 9.20338 3.51812 9.38101 3.44427 9.62012C3.37042 9.85924 3.43669 10.1196 3.61589 10.2943C3.61589 10.2943 5.94661 12.5716 5.94661 12.5716C5.94661 12.5716 5.43099 15.8971 5.43099 15.8971C5.39255 16.1461 5.49777 16.3955 5.70294 16.5418C5.90811 16.688 6.1782 16.7061 6.40104 16.5885C6.40104 16.5885 9.33854 15.0365 9.33854 15.0365C9.33854 15.0365 12.2747 16.5898 12.2747 16.5898C12.4977 16.7082 12.7683 16.6904 12.9739 16.5441C13.1795 16.3977 13.2849 16.1478 13.2461 15.8984C13.2461 15.8984 12.7305 12.5729 12.7305 12.5729C12.7305 12.5729 15.0599 10.2956 15.0599 10.2956C15.2383 10.1208 15.3041 9.86095 15.2303 9.62232C15.1565 9.3837 14.9556 9.20633 14.7096 9.16276C14.7096 9.16276 11.4349 8.58464 11.4349 8.58464C11.4349 8.58464 9.93099 5.69271 9.93099 5.69271C9.81551 5.47039 9.58515 5.33157 9.33463 5.33333C9.33463 5.33333 9.33463 5.33333 9.33463 5.33333ZM9.33984 7.44401C9.33984 7.44401 10.4036 9.49219 10.4036 9.49219C10.4992 9.67604 10.6749 9.805 10.8789 9.84115C10.8789 9.84115 13.1992 10.25 13.1992 10.25C13.1992 10.25 11.5521 11.8594 11.5521 11.8594C11.3984 12.0097 11.3266 12.225 11.3594 12.4375C11.3594 12.4375 11.7253 14.7904 11.7253 14.7904C11.7253 14.7904 9.64974 13.694 9.64974 13.694C9.455 13.5912 9.22208 13.5912 9.02734 13.694C9.02734 13.694 6.95182 14.7891 6.95182 14.7891C6.95182 14.7891 7.31641 12.4362 7.31641 12.4362C7.34915 12.2237 7.2774 12.0084 7.1237 11.8581C7.1237 11.8581 5.47656 10.2487 5.47656 10.2487C5.47656 10.2487 7.79818 9.84115 7.79818 9.84115C8.00222 9.805 8.17785 9.67604 8.27344 9.49219C8.27344 9.49219 9.33984 7.44401 9.33984 7.44401L9.33984 7.44401Z" fill="#FFFFFF" transform="translate(6.667 2)" />
  </g>
</svg>