<?xml version="1.0" encoding="utf-8"?>
<svg width="20" height="20" viewBox="0 0 20 20" fill="none" xmlns="http://www.w3.org/2000/svg">
  <path d="M0 1.66667C0 0.7462 0.497467 0 1.11111 0C1.11111 0 18.8889 0 18.8889 0C19.5026 0 20 0.7462 20 1.66667C20 2.58713 19.5026 3.33333 18.8889 3.33333C18.8889 3.33333 1.11111 3.33333 1.11111 3.33333C0.497467 3.33333 0 2.58713 0 1.66667ZM3.33333 10C3.33333 9.0795 3.8308 8.33333 4.44444 8.33333C4.44444 8.33333 15.5556 8.33333 15.5556 8.33333C16.1692 8.33333 16.6667 9.0795 16.6667 10C16.6667 10.9205 16.1692 11.6667 15.5556 11.6667C15.5556 11.6667 4.44444 11.6667 4.44444 11.6667C3.8308 11.6667 3.33333 10.9205 3.33333 10ZM6.66667 18.3333C6.66667 17.4128 7.16413 16.6667 7.77778 16.6667C7.77778 16.6667 12.2222 16.6667 12.2222 16.6667C12.8359 16.6667 13.3333 17.4128 13.3333 18.3333C13.3333 19.2538 12.8359 20 12.2222 20C12.2222 20 7.77778 20 7.77778 20C7.16413 20 6.66667 19.2538 6.66667 18.3333Z" fill="#C2C9C2" fill-rule="evenodd" />
</svg>