<?xml version="1.0" encoding="utf-8"?>
<svg width="25" height="25" viewBox="0 0 25 25" fill="none" xmlns="http://www.w3.org/2000/svg">
  <g>
    <g transform="translate(1.042 5.208)">
      <path d="M0 7.29167C0 7.29167 4.40384 10.8147 4.40384 10.8147C4.84957 11.1714 5.49926 11.1027 5.86072 10.6609C5.86072 10.6609 14.5833 0 14.5833 0" fill="none" stroke-width="2" stroke="#3DFB09" stroke-linecap="round" transform="translate(7.292 1.042)" />
      <path d="M10.6138 7.53833C10.6138 7.53833 15.3896 1.70132 15.3896 1.70132C15.7539 1.25606 15.6883 0.599789 15.243 0.235487C14.7978 -0.128804 14.1415 -0.0631791 13.7771 0.382071C13.7771 0.382071 9.01332 6.20458 9.01332 6.20458C9.01332 6.20458 10.6138 7.53833 10.6138 7.53833ZM7.3156 11.5696C7.3156 11.5696 5.71507 10.2357 5.71507 10.2357L5.03453 11.0675C5.03453 11.0675 1.66673 8.54166 1.66673 8.54166C1.20649 8.19656 0.553573 8.28979 0.208396 8.75C-0.136784 9.21031 -0.04351 9.86323 0.41673 10.2083C0.41673 10.2083 3.78453 12.7342 3.78453 12.7342C4.67764 13.4041 5.94 13.2508 6.64694 12.3868C6.64694 12.3868 7.3156 11.5696 7.3156 11.5696Z" fill="#3DFB09" fill-rule="evenodd" />
    </g>
  </g>
</svg>