<?xml version="1.0" encoding="utf-8"?>
<svg width="33" height="33" viewBox="0 0 33 33" fill="none" xmlns="http://www.w3.org/2000/svg">
  <g>
    <path d="M15.8159 0.000515521C15.6774 0.00529283 15.5439 0.0535499 15.4344 0.138445C15.4344 0.138445 0.254349 11.9836 0.254349 11.9836C-0.0332707 12.2079 -0.0846355 12.6229 0.139622 12.9105C0.36388 13.1981 0.778839 13.2495 1.06646 13.0252C1.06646 13.0252 1.9804 12.3124 1.9804 12.3124C1.9804 12.3124 1.9804 29.6644 1.9804 29.6644C1.98058 30.0292 2.27617 30.3245 2.64066 30.3244C2.64066 30.3244 11.7695 30.3244 11.7695 30.3244C11.8408 30.3362 11.9135 30.3362 11.9848 30.3244C11.9848 30.3244 19.6895 30.3244 19.6895 30.3244C19.7608 30.3362 19.8335 30.3362 19.9048 30.3244C19.9048 30.3244 29.0404 30.3244 29.0404 30.3244C29.4049 30.3244 29.7004 30.0289 29.7004 29.6644C29.7004 29.6644 29.7004 12.3124 29.7004 12.3124C29.7004 12.3124 30.6143 13.0252 30.6143 13.0252C30.902 13.2495 31.3169 13.1981 31.5412 12.9105C31.7654 12.6229 31.7141 12.2079 31.4265 11.9836C31.4265 11.9836 26.4004 8.06231 26.4004 8.06231L26.4004 3.26442L22.4404 3.26442L22.4404 4.97114C22.4404 4.97114 16.2465 0.138445 16.2465 0.138445C16.1237 0.0432205 15.9712 -0.00562298 15.8159 0.00051558C15.8159 0.00051558 15.8159 0.000515521 15.8159 0.000515521ZM15.8404 1.49713L28.3804 11.2824L28.3804 29.0044L20.4604 29.0044L20.4604 16.4644L11.2204 16.4644L11.2204 29.0044L3.3004 29.0044L3.3004 11.2824L15.8404 1.49713L15.8404 1.49713ZM23.7604 4.58446L25.0804 4.58446L25.0804 7.03239L23.7604 6.00114L23.7604 4.58446L23.7604 4.58446ZM12.5404 17.7844L19.1404 17.7844L19.1404 29.0044L12.5404 29.0044L12.5404 17.7844L12.5404 17.7844Z" fill="#FFFFFF" transform="translate(0.66 0.696)" />
  </g>
</svg>