<?xml version="1.0" encoding="utf-8"?>
<svg width="29" height="29" viewBox="0 0 29 29" fill="none" xmlns="http://www.w3.org/2000/svg">
  <g>
    <g transform="translate(3.625 3.625)">
      <path d="M0 2.41667L0 1.20833C0 0.874661 0.117971 0.589854 0.353913 0.353912C0.589854 0.117971 0.874661 0 1.20833 0L7.25 0C7.58367 0 7.86848 0.117971 8.10442 0.353912C8.34036 0.589854 8.45833 0.874661 8.45833 1.20833L8.45833 7.25C8.45833 7.58367 8.34036 7.86847 8.10442 8.10442C7.86848 8.34036 7.58367 8.45833 7.25 8.45833L1.20833 8.45833C0.874661 8.45833 0.589854 8.34036 0.353913 8.10442C0.117971 7.86847 0 7.58367 0 7.25L0 2.41667Z" fill="none" stroke-width="2" stroke="#E3E3E3" stroke-linecap="round" />
      <path d="M0 2.41667L0 1.20833C0 0.874661 0.117971 0.589854 0.353913 0.353912C0.589854 0.11797 0.874661 0 1.20833 0L7.25 0C7.58367 0 7.86848 0.11797 8.10442 0.353912C8.34036 0.589854 8.45833 0.874661 8.45833 1.20833L8.45833 7.25C8.45833 7.58368 8.34036 7.86848 8.10442 8.10442C7.86848 8.34037 7.58367 8.45834 7.25 8.45834L1.20833 8.45834C0.874661 8.45834 0.589854 8.34037 0.353913 8.10442C0.117971 7.86848 0 7.58368 0 7.25L0 2.41667Z" fill="none" stroke-width="2" stroke="#E3E3E3" stroke-linecap="round" transform="translate(0 13.292)" />
      <path d="M0 2.41667L0 1.20833C0 0.874661 0.11797 0.589854 0.353912 0.353912C0.589854 0.117971 0.874661 0 1.20833 0L7.25 0C7.58367 0 7.86848 0.117971 8.10442 0.353912C8.34036 0.589854 8.45833 0.874661 8.45833 1.20833L8.45833 7.25C8.45833 7.58367 8.34036 7.86847 8.10442 8.10442C7.86848 8.34036 7.58367 8.45833 7.25 8.45833L1.20833 8.45833C0.874661 8.45833 0.589854 8.34036 0.353912 8.10442C0.11797 7.86847 0 7.58367 0 7.25L0 2.41667Z" fill="none" stroke-width="2" stroke="#E3E3E3" stroke-linecap="round" transform="translate(13.292 0)" />
      <path d="M0 0L0 8.45857" fill="none" stroke-width="2" stroke="#E3E3E3" stroke-linecap="round" transform="translate(17.521 13.292)" />
      <path d="M8.45845 0L0 0" fill="none" stroke-width="2" stroke="#E3E3E3" stroke-linecap="round" transform="translate(13.292 17.521)" />
    </g>
  </g>
</svg>