<?xml version="1.0" encoding="utf-8"?>
<svg width="6" height="20" viewBox="0 0 6 20" fill="none" xmlns="http://www.w3.org/2000/svg">
  <g transform="translate(1 1)">
    <path d="M0 2L0 1C0 0.723858 0.0976311 0.488155 0.292893 0.292893C0.488155 0.0976311 0.723858 0 1 0L3 0C3.27614 0 3.51184 0.0976311 3.70711 0.292893C3.90237 0.488155 4 0.723858 4 1L4 9C4 9.27614 3.90237 9.51184 3.70711 9.70711C3.51184 9.90237 3.27614 10 3 10L1 10C0.723858 10 0.488155 9.90237 0.292893 9.70711C0.0976311 9.51184 0 9.27614 0 9L0 2Z" fill="none" stroke-width="2" stroke="#D30101" stroke-linecap="round" stroke-linejoin="round" />
    <path d="M0 2C0 0.895431 0.89543 0 2 0C3.10457 0 4 0.895431 4 2C4 3.10457 3.10457 4 2 4C0.89543 4 0 3.10457 0 2Z" fill="none" stroke-width="2" stroke="#D30101" stroke-linecap="round" stroke-linejoin="round" transform="translate(0 14)" />
  </g>
</svg>