<?xml version="1.0" encoding="utf-8"?>
<svg width="32" height="32" viewBox="0 0 32 32" fill="none" xmlns="http://www.w3.org/2000/svg">
  <g>
    <path d="M10.1997 0C4.57471 0 0 4.62529 0 10.3003C0 16.0003 4.57471 20.6001 10.1997 20.6001C12.7747 20.6001 15.1248 19.6249 16.9248 18.0249C16.9248 18.0249 17.5 18.6001 17.5 18.6001C17.5 18.6001 16.9746 19.1499 16.9746 19.1499C16.6746 19.4499 16.6746 19.9251 16.9746 20.2251C16.9746 20.2251 21.4746 24.7749 21.4746 24.7749C21.6246 24.9249 21.8 25 22 25C22.2 25 22.3999 24.9249 22.5249 24.7749C22.5249 24.7749 24.5249 22.75 24.5249 22.75C24.7999 22.45 24.8 21.9752 24.5 21.7002C24.5 21.7002 20 17.1499 20 17.1499C19.85 16.9999 19.6746 16.9253 19.4746 16.9253C19.2746 16.9253 19.0747 16.9999 18.9497 17.1499C18.9497 17.1499 18.4248 17.7002 18.4248 17.7002C18.4248 17.7002 17.8496 17.1001 17.8496 17.1001C19.4246 15.2751 20.3999 12.9003 20.3999 10.3003C20.3999 4.62529 15.8247 0 10.1997 0C10.1997 0 10.1997 0 10.1997 0ZM10.1997 1.5249C14.9997 1.5249 18.8999 5.47519 18.8999 10.3252C18.8999 15.1752 14.9997 19.1001 10.1997 19.1001C5.39971 19.1001 1.5 15.1752 1.5 10.3252C1.5 5.47519 5.39971 1.5249 10.1997 1.5249C10.1997 1.5249 10.1997 1.5249 10.1997 1.5249ZM10.2246 4.6499C7.84961 4.6499 5.72481 6.17529 4.92481 8.42529C4.79981 8.75029 4.97471 9.15 5.32471 9.25C5.39971 9.275 5.47481 9.30029 5.54981 9.30029C5.82481 9.30029 6.07481 9.1251 6.17481 8.8501C6.77481 7.1251 8.42461 5.9502 10.2246 5.9502C10.5746 5.9502 10.875 5.65029 10.875 5.30029C10.875 4.95029 10.5746 4.6499 10.2246 4.6499C10.2246 4.6499 10.2246 4.6499 10.2246 4.6499ZM5.47461 10.8252C5.12461 10.8252 4.82471 11.1001 4.82471 11.4751C4.82471 11.4751 4.82471 11.5752 4.82471 11.5752C4.84971 11.9252 5.125 12.2251 5.5 12.2251C5.85 12.2251 6.1499 11.9252 6.1499 11.5752C6.1499 11.5752 6.1499 11.5 6.1499 11.5C6.1499 11.125 5.875 10.8252 5.5 10.8252C5.5 10.8252 5.47461 10.8252 5.47461 10.8252C5.47461 10.8252 5.47461 10.8252 5.47461 10.8252ZM19.5 18.75L22.9497 22.25L22 23.2002L18.5498 19.7002L19.5 18.75L19.5 18.75Z" fill="#FFFFFF" transform="translate(3.95 5.4)" />
  </g>
</svg>