<?xml version="1.0" encoding="utf-8"?>
<svg width="21" height="21" viewBox="0 0 21 21" fill="none" xmlns="http://www.w3.org/2000/svg">
  <g transform="matrix(1 0 0 -1 0 21)">
    <g fill="#111711" fill-rule="evenodd">
      <path d="M0 10.5C0 4.70101 4.70101 0 10.5 0C16.299 0 21 4.70101 21 10.5C21 16.299 16.299 21 10.5 21C4.70101 21 0 16.299 0 10.5Z" />
      <path d="M10.5 0C4.70101 0 0 4.70101 0 10.5C0 16.299 4.70101 21 10.5 21C16.299 21 21 16.299 21 10.5C21 4.70101 16.299 0 10.5 0ZM3.78249 17.2175Q1 14.435 1 10.5Q1 6.56497 3.78249 3.78249Q6.56497 1 10.5 1Q14.435 1 17.2175 3.78249Q20 6.56497 20 10.5Q20 14.435 17.2175 17.2175Q14.435 20 10.5 20Q6.56497 20 3.78249 17.2175Z" fill="#293829" fill-rule="evenodd" />
    </g>
    <path d="M4.8175 9.63499L1.37514 2.75028Q1.34811 2.69623 1.32458 2.64057Q1.30104 2.58491 1.28109 2.52787Q1.26113 2.47083 1.24484 2.41263Q1.22856 2.35444 1.216 2.29533Q1.20344 2.23622 1.19466 2.17643Q1.18588 2.11664 1.18092 2.05641Q1.17596 1.99619 1.17484 1.93577Q1.17371 1.87535 1.17643 1.81498Q1.17914 1.75461 1.18569 1.69453Q1.19224 1.63446 1.20259 1.57492Q1.21294 1.51538 1.22705 1.45663Q1.24116 1.39787 1.25898 1.34012Q1.27679 1.28238 1.29824 1.22588Q1.31969 1.16939 1.34468 1.11437Q1.36968 1.05935 1.39812 1.00603Q1.42656 0.952708 1.45833 0.901303Q1.4901 0.849898 1.52507 0.800615Q1.56004 0.751332 1.59807 0.704371Q1.63611 0.657409 1.67705 0.612959Q1.71799 0.568509 1.76167 0.52675Q1.80535 0.48499 1.85159 0.446091Q1.89784 0.407191 1.94646 0.371308Q1.99508 0.335425 2.04589 0.302703Q2.09669 0.269982 2.14947 0.240554Q2.20226 0.211127 2.2568 0.185112Q2.31134 0.159098 2.36743 0.136601Q2.42352 0.114104 2.48092 0.0952165Q2.53832 0.0763286 2.59681 0.0611259Q2.6553 0.0459232 2.71463 0.0344671Q2.77397 0.023011 2.83391 0.0153478Q2.89385 0.00768454 2.95416 0.00384515Q3.01447 5.75953e-06 3.0749 5.72205e-06L9.95961 1.90735e-06Q10.02 1.86986e-06 10.0803 0.00384119Q10.1407 0.0076805 10.2006 0.0153437Q10.2605 0.0230068 10.3199 0.0344629Q10.3792 0.0459189 10.4377 0.0611215Q10.4962 0.0763241 10.5536 0.0952119Q10.611 0.1141 10.6671 0.136596Q10.7232 0.159093 10.7777 0.185108Q10.8322 0.211122 10.885 0.240549Q10.9378 0.269977 10.9886 0.302698Q11.0394 0.33542 11.088 0.371303Q11.1367 0.407186 11.1829 0.446085Q11.2292 0.484985 11.2728 0.526744Q11.3165 0.568504 11.3575 0.612954Q11.3984 0.657404 11.4364 0.704365Q11.4745 0.751327 11.5094 0.800609Q11.5444 0.849892 11.5762 0.901297Q11.6079 0.952702 11.6364 1.00602Q11.6648 1.05934 11.6898 1.11436Q11.7148 1.16938 11.7363 1.22588Q11.7577 1.28237 11.7755 1.34012Q11.7933 1.39786 11.8075 1.45662Q11.8216 1.51538 11.8319 1.57492Q11.8423 1.63445 11.8488 1.69453Q11.8554 1.7546 11.8581 1.81497Q11.8608 1.87534 11.8597 1.93576Q11.8585 1.99618 11.8536 2.05641Q11.8486 2.11663 11.8398 2.17642Q11.8311 2.23621 11.8185 2.29532Q11.806 2.35443 11.7897 2.41263Q11.7734 2.47082 11.7534 2.52786Q11.7335 2.5849 11.7099 2.64056Q11.6864 2.69622 11.6594 2.75027L8.21702 9.63498Q8.1876 9.69382 8.15419 9.75047Q8.12078 9.80713 8.08352 9.86134Q8.04627 9.91556 8.00536 9.96706Q7.96445 10.0186 7.92008 10.0671Q7.87571 10.1157 7.82808 10.161Q7.78046 10.2064 7.72981 10.2484Q7.67916 10.2904 7.62573 10.3287Q7.57231 10.3671 7.51635 10.4017Q7.4604 10.4363 7.40219 10.4669Q7.34398 10.4975 7.28379 10.524Q7.2236 10.5506 7.16172 10.5729Q7.09984 10.5952 7.03657 10.6132Q6.9733 10.6311 6.90893 10.6447Q6.84457 10.6582 6.77942 10.6673Q6.71427 10.6764 6.64865 10.6809Q6.58303 10.6855 6.51726 10.6855Q6.45148 10.6855 6.38586 10.6809Q6.32024 10.6764 6.25509 10.6673Q6.18995 10.6583 6.12558 10.6447Q6.06122 10.6311 5.99794 10.6132Q5.93467 10.5952 5.87279 10.5729Q5.81091 10.5506 5.75072 10.524Q5.69054 10.4975 5.63233 10.4669Q5.57412 10.4363 5.51816 10.4017Q5.46221 10.3671 5.40878 10.3287Q5.35535 10.2904 5.30471 10.2484Q5.25406 10.2064 5.20643 10.1611Q5.15881 10.1157 5.11444 10.0671Q5.07006 10.0186 5.02915 9.96706Q4.98824 9.91556 4.95099 9.86135Q4.91374 9.80713 4.88033 9.75047Q4.84691 9.69382 4.8175 9.63498L4.8175 9.63499Z" fill="#293829" fill-rule="evenodd" transform="translate(4.345 5.793)" />
  </g>
</svg>