<?xml version="1.0" encoding="utf-8"?>
<svg width="5.5" height="5.361" viewBox="0 0 30 8.361" fill="none" xmlns="http://www.w3.org/2000/svg">
  <path d="M15 0C12.6915 0 10.8197 1.8718 10.8197 4.18033C10.8197 6.48885 12.6915 8.36066 15 8.36066C17.3085 8.36066 19.1803 6.48885 19.1803 4.18033C19.1803 4.18033 19.1803 4.18033 19.1803 4.18033C19.1774 1.87279 17.3075 0.00295067 15 0C15 0 15 0 15 0C15 0 15 0 15 0ZM15 5.90164C14.0498 5.90164 13.2787 5.13049 13.2787 4.18033C13.2787 3.23016 14.0498 2.45902 15 2.45902C15.9502 2.45902 16.7213 3.23016 16.7213 4.18033C16.7213 4.18033 16.7213 4.18033 16.7213 4.18033C16.7203 5.13049 15.9502 5.90066 15 5.90164C15 5.90164 15 5.90164 15 5.90164C15 5.90164 15 5.90164 15 5.90164ZM4.18033 0C1.8718 0 0 1.8718 0 4.18033C0 6.48885 1.8718 8.36066 4.18033 8.36066C6.48885 8.36066 8.36066 6.48885 8.36066 4.18033C8.36066 4.18033 8.36066 4.18033 8.36066 4.18033C8.35771 1.87279 6.48787 0.00295067 4.18033 0C4.18033 0 4.18033 0 4.18033 0C4.18033 0 4.18033 0 4.18033 0ZM4.18033 5.90164C3.23016 5.90164 2.45902 5.13049 2.45902 4.18033C2.45902 3.23016 3.23016 2.45902 4.18033 2.45902C5.13049 2.45902 5.90164 3.23016 5.90164 4.18033C5.90164 4.18033 5.90164 4.18033 5.90164 4.18033C5.90066 5.13049 5.13049 5.90066 4.18033 5.90164C4.18033 5.90164 4.18033 5.90164 4.18033 5.90164C4.18033 5.90164 4.18033 5.90164 4.18033 5.90164ZM25.8197 0C23.5111 0 21.6393 1.8718 21.6393 4.18033C21.6393 6.48885 23.5111 8.36066 25.8197 8.36066C28.1282 8.36066 30 6.48885 30 4.18033C30 4.18033 30 4.18033 30 4.18033C29.997 1.87279 28.1272 0.00295067 25.8197 0C25.8197 0 25.8197 0 25.8197 0C25.8197 0 25.8197 0 25.8197 0ZM25.8197 5.90164C24.8695 5.90164 24.0984 5.13049 24.0984 4.18033C24.0984 3.23016 24.8695 2.45902 25.8197 2.45902C26.7698 2.45902 27.541 3.23016 27.541 4.18033C27.541 4.18033 27.541 4.18033 27.541 4.18033C27.54 5.13049 26.7698 5.90066 25.8197 5.90164C25.8197 5.90164 25.8197 5.90164 25.8197 5.90164C25.8197 5.90164 25.8197 5.90164 25.8197 5.90164Z" fill="#DEDDDA" />
</svg>