<?xml version="1.0" encoding="utf-8"?>
<svg width="25" height="6.967" viewBox="0 0 25 6.967" fill="none" xmlns="http://www.w3.org/2000/svg">
  <path d="M12.5 0C10.5762 0 9.01639 1.55984 9.01639 3.48361C9.01639 5.40738 10.5762 6.96721 12.5 6.96721C14.4238 6.96721 15.9836 5.40738 15.9836 3.48361C15.9836 3.48361 15.9836 3.48361 15.9836 3.48361C15.9811 1.56066 14.4229 0.00245953 12.5 0C12.5 0 12.5 0 12.5 0C12.5 0 12.5 0 12.5 0ZM12.5 4.91803C11.7082 4.91803 11.0656 4.27541 11.0656 3.48361C11.0656 2.6918 11.7082 2.04918 12.5 2.04918C13.2918 2.04918 13.9344 2.6918 13.9344 3.48361C13.9344 3.48361 13.9344 3.48361 13.9344 3.48361C13.9336 4.27541 13.2918 4.91721 12.5 4.91803C12.5 4.91803 12.5 4.91803 12.5 4.91803C12.5 4.91803 12.5 4.91803 12.5 4.91803ZM3.48361 0C1.55984 0 0 1.55984 0 3.48361C0 5.40738 1.55984 6.96721 3.48361 6.96721C5.40738 6.96721 6.96721 5.40738 6.96721 3.48361C6.96721 3.48361 6.96721 3.48361 6.96721 3.48361C6.96475 1.56066 5.40656 0.00245953 3.48361 0C3.48361 0 3.48361 0 3.48361 0C3.48361 0 3.48361 0 3.48361 0ZM3.48361 4.91803C2.6918 4.91803 2.04918 4.27541 2.04918 3.48361C2.04918 2.6918 2.6918 2.04918 3.48361 2.04918C4.27541 2.04918 4.91803 2.6918 4.91803 3.48361C4.91803 3.48361 4.91803 3.48361 4.91803 3.48361C4.91721 4.27541 4.27541 4.91721 3.48361 4.91803C3.48361 4.91803 3.48361 4.91803 3.48361 4.91803C3.48361 4.91803 3.48361 4.91803 3.48361 4.91803ZM21.5164 0C19.5926 0 18.0328 1.55984 18.0328 3.48361C18.0328 5.40738 19.5926 6.96721 21.5164 6.96721C23.4402 6.96721 25 5.40738 25 3.48361C25 3.48361 25 3.48361 25 3.48361C24.9975 1.56066 23.4393 0.00245953 21.5164 0C21.5164 0 21.5164 0 21.5164 0C21.5164 0 21.5164 0 21.5164 0ZM21.5164 4.91803C20.7246 4.91803 20.082 4.27541 20.082 3.48361C20.082 2.6918 20.7246 2.04918 21.5164 2.04918C22.3082 2.04918 22.9508 2.6918 22.9508 3.48361C22.9508 3.48361 22.9508 3.48361 22.9508 3.48361C22.95 4.27541 22.3082 4.91721 21.5164 4.91803C21.5164 4.91803 21.5164 4.91803 21.5164 4.91803C21.5164 4.91803 21.5164 4.91803 21.5164 4.91803Z" fill="#E4AD08" />
</svg>